<?xml version='1.0' encoding='iso-8859-1'?>
<!DOCTYPE svg PUBLIC '-//W3C//DTD SVG 1.1//EN' 'http://www.w3.org/Graphics/SVG/1.1/DTD/svg11.dtd'>
<!-- Uploaded to: SVG Repo, www.svgrepo.com, Generator: SVG Repo Mixer Tools -->
<svg fill="#000000" height="800px" width="800px" version="1.1" xmlns="http://www.w3.org/2000/svg" viewBox="0 0 512 512" xmlns:xlink="http://www.w3.org/1999/xlink" enable-background="new 0 0 512 512">
  <g>
    <path d="m256,192.582c17.656,0 32-14.328 32-32 0-17.672-14.344-32-32-32-17.688,0-32,14.328-32,32 0,17.672 14.313,32 32,32z"/>
    <path d="m287.289,281.297c-3.164-14.758-16.203-25.297-31.289-25.297s-28.125,10.539-31.289,25.297l-48,191.414c-2.023,9.445 0.328,19.305 6.406,26.82 6.071,7.516 15.219,12.469 24.883,12.469h96c9.664,0 18.813-4.953 24.883-12.469 6.078-7.516 8.43-17.375 6.406-26.82l-48-191.414z"/>
    <path d="M128,160.578c0-34.187,13.313-66.328,37.492-90.508c6.25-6.242,6.25-16.375,0-22.625s-16.375-6.25-22.625,0   C112.641,77.664,96,117.844,96,160.578c0,42.742,16.641,82.922,46.867,113.141c3.125,3.125,7.219,4.688,11.313,4.688   c4.094,0,8.188-1.563,11.313-4.688c6.25-6.25,6.25-16.383,0-22.625C141.313,226.914,128,194.773,128,160.578z"/>
    <path d="m369.133,47.445c-6.25-6.25-16.375-6.25-22.625,0s-6.25,16.383 0,22.625c24.18,24.18 37.492,56.321 37.492,90.508 0,34.195-13.313,66.336-37.492,90.516-6.25,6.242-6.25,16.375 0,22.625 3.125,3.125 7.219,4.688 11.313,4.688 4.094,0 8.188-1.563 11.313-4.688 30.225-30.219 46.866-70.399 46.866-113.141 0-42.734-16.641-82.914-46.867-113.133z"/>
    <path d="m188.117,228.461c3.125,3.125 7.219,4.688 11.313,4.688 4.094,0 8.188-1.563 11.313-4.688 6.25-6.25 6.25-16.375 0-22.625-24.953-24.953-24.953-65.555 0-90.508 6.25-6.25 6.25-16.375 0-22.625s-16.375-6.25-22.625,0c-37.43,37.43-37.43,98.328-0.001,135.758z"/>
    <path d="m301.258,228.461c3.125,3.125 7.219,4.688 11.313,4.688 4.094,0 8.188-1.563 11.313-4.688 37.43-37.43 37.43-98.328 0-135.758-6.25-6.25-16.375-6.25-22.625,0s-6.25,16.375 0,22.625c24.953,24.953 24.953,65.555 0,90.508-6.251,6.25-6.251,16.375-0.001,22.625z"/>
    <path d="m117.156,27.313c6.25-6.25 6.25-16.375 0-22.625s-16.375-6.25-22.625,0c-85.359,85.359-82.656,221.805 6.156,310.625 3.125,3.125 7.219,4.687 11.313,4.687 4.094,0 8.188-1.563 11.313-4.688 6.25-6.25 6.25-16.375 0-22.625-76.126-76.132-78.829-192.703-6.157-265.374z"/>
    <path d="m411.313,4.688c-6.25-6.25-16.375-6.25-22.625,0s-6.25,16.375 0,22.625c76.125,76.125 78.828,192.695 6.156,265.375-6.25,6.25-6.25,16.375 0,22.625 3.125,3.125 7.219,4.688 11.313,4.688 4.094,0 8.188-1.563 11.313-4.688 85.358-85.368 82.655-221.813-6.157-310.625z"/>
  </g>
</svg>